<svg width="34" height="35" viewBox="0 0 34 35" fill="none" xmlns="http://www.w3.org/2000/svg">
<path d="M29.5729 28.3795L23.9062 22.5392C23.7227 22.3455 23.5183 22.1741 23.2971 22.0281L21.8804 21.0207C24.7944 17.3045 24.8214 12.0035 21.9456 8.25599C19.0697 4.50846 14.0584 3.31456 9.87855 5.38112C5.69869 7.44769 3.46578 12.2232 4.50178 16.8804C5.53778 21.5375 9.56619 24.8335 14.2021 24.8169C16.4518 24.8176 18.6349 24.0298 20.3929 22.583L21.4554 24.0431C21.5814 24.2311 21.7237 24.407 21.8804 24.5687L27.5471 30.4091C27.6801 30.5473 27.8611 30.625 28.05 30.625C28.2389 30.625 28.4199 30.5473 28.5529 30.4091L29.5446 29.387C29.8135 29.1128 29.826 28.6693 29.5729 28.3795ZM14.2021 21.8967C10.2901 21.8967 7.11875 18.6282 7.11875 14.5963C7.11875 10.5643 10.2901 7.29581 14.2021 7.29581C18.1141 7.29581 21.2854 10.5643 21.2854 14.5963C21.2854 16.5325 20.5391 18.3894 19.2108 19.7585C17.8824 21.1276 16.0807 21.8967 14.2021 21.8967Z" fill="#333333"/>
</svg>
